#!OML:ASF H:\Terrain\Patient Classification 1\Terrain2\Thursday\justin.ASF
:FULLY-SPECIFIED
:DEGREES
2466
root -11.3479 17.3475 12.6439 938.407 69.8154 -494.849
lowerback 13.9325 -0.653692 13.7276
upperback 5.68632 1.8814 6.99884
thorax -1.57132 1.35341 -0.546481
lowerneck -10.5382 -4.8835 -10.3646
upperneck 37.3669 -4.2169 4.89221
head 15.2142 -1.92602 3.42831
rclavicle 2.62396e-014 2.38542e-014
rhumerus -32.9697 -9.04916 -76.632
rradius 32.4835
rwrist -12.2304
rhand -21.2514 10.4221
rfingers 7.12502
rthumb 5.13163 -19.4957
lclavicle 2.62396e-014 2.38542e-014
lhumerus -32.5622 2.69108 85.312
lradius 40.7366
lwrist 3.78865
lhand -21.0462 23.0003
lfingers 7.12502
lthumb 5.32978 52.9133
rfemur 3.3791 0.296349 38.0011
rtibia 21.7795
rfoot -15.8184 26.1273
rtoes 26.3718
lfemur -63.726 12.9108 -4.73287
ltibia 100.049
lfoot -9.08998 -29.163
ltoes 1.28601
2467
root -11.3352 17.4251 12.5644 928.478 72.7132 -506.842
lowerback 12.8285 -0.110539 9.89203
upperback 5.30988 1.71239 5.614
thorax -1.4857 1.14201 0.0981112
lowerneck -10.4021 -4.83661 -10.3243
upperneck 37.2345 -4.15932 4.82323
head 15.1069 -1.90747 3.39541
rclavicle -9.54166e-015 -1.82882e-014
rhumerus -32.9076 -8.96765 -76.6545
rradius 32.5111
rwrist -11.8956
rhand -21.182 10.4878
rfingers 7.12502
rthumb 5.19865 -19.4285
lclavicle -9.54166e-015 -1.82882e-014
lhumerus -32.5087 2.55534 85.4119
lradius 40.4083
lwrist 3.87743
lhand -21.8311 23.0802
lfingers 7.12502
lthumb 4.57186 53.0109
rfemur 2.05689 -0.204423 32.2685
rtibia 21.8807
rfoot -15.4838 27.7531
rtoes 27.2891
lfemur -64.6605 11.1911 -11.1746
ltibia 98.1054
lfoot -10.0407 -27.4901
ltoes -2.43712
2468
root -11.3085 17.4617 12.5113 922.494 74.0485 -513.828
lowerback 12.3884 0.119289 7.89461
upperback 5.09013 1.63977 5.00387
thorax -1.53151 1.04702 0.568912
lowerneck -10.1291 -4.76225 -10.3362
upperneck 37.0779 -4.03359 4.69342
head 14.9509 -1.8739 3.35691
rclavicle 4.77083e-015 -6.52014e-014
rhumerus -32.8184 -8.65142 -76.6712
rradius 32.543
rwrist -11.8096
rhand -21.2357 10.6007
rfingers 7.12502
rthumb 5.14682 -19.3168
lclavicle 4.77083e-015 -6.52014e-014
lhumerus -32.4784 2.52423 85.5057
lradius 40.0575
lwrist 3.71704
lhand -21.4627 23.0867
lfingers 7.12502
lthumb 4.92758 53.0094
rfemur 1.45337 -0.185082 29.4594
rtibia 21.9949
rfoot -15.1892 28.384
rtoes 28.1615
lfemur -65.2672 10.1868 -14.3353
ltibia 96.4373
lfoot -10.0452 -26.7477
ltoes -4.89928
2469
root -11.2549 17.3999 12.5036 931.727 72.6145 -503.565
lowerback 13.0462 -0.29462 11.0886
upperback 5.24694 1.69184 5.85061
thorax -1.63682 1.14768 -0.307096
lowerneck -10.0644 -4.7915 -10.132
upperneck 37.0231 -4.09176 4.54722
head 14.9032 -1.89108 3.24697
rclavicle 9.54166e-015 -8.74653e-015
rhumerus -32.7128 -8.63337 -76.8732
rradius 32.6626
rwrist -11.8526
rhand -21.2965 10.4138
rfingers 7.12502
rthumb 5.08807 -19.5051
lclavicle 9.54166e-015 -8.74653e-015
lhumerus -32.4937 2.48748 85.4357
lradius 39.8999
lwrist 3.27005
lhand -20.2424 22.6627
lfingers 7.12502
lthumb 6.10577 52.5547
rfemur 2.17654 -0.121321 33.1025
rtibia 22.2626
rfoot -15.4516 28.0387
rtoes 28.4365
lfemur -65.6969 10.3145 -10.751
ltibia 95.6154
lfoot -8.48788 -27.8247
ltoes -3.56896
2470
root -11.2048 17.3841 12.4748 933.725 72.7595 -501.338
lowerback 13.3216 -0.242694 11.721
upperback 5.36667 1.89719 5.93965
thorax -1.6192 1.26931 -0.587604
lowerneck -10.2197 -4.88577 -10.1207
upperneck 37.003 -4.25425 4.60029
head 14.9468 -1.95512 3.239
rclavicle 5.1684e-014 -1.51076e-014
rhumerus -32.5298 -8.60122 -76.9983
rradius 32.7233
rwrist -12.1036
rhand -21.4204 10.3353
rfingers 7.12502
rthumb 4.96847 -19.5864
lclavicle 5.1684e-014 -1.51076e-014
lhumerus -32.6226 2.26992 85.6041
lradius 39.8847
lwrist 3.20161
lhand -19.7677 21.872
lfingers 7.12502
lthumb 6.56407 51.7503
rfemur 2.65713 0.145724 33.5865
rtibia 22.0664
rfoot -15.2603 28.1218
rtoes 28.9146
lfemur -65.7759 10.1888 -10.4662
ltibia 94.3706
lfoot -8.16771 -27.6764
ltoes -3.36896
2471
root -11.1587 17.3937 12.4394 933.106 73.3834 -502.239
lowerback 13.2101 -0.199123 11.3038
upperback 5.41634 1.86246 5.85747
thorax -1.52223 1.24827 -0.440123
lowerneck -10.3858 -4.81115 -10.4655
upperneck 36.9053 -4.15468 4.85211
head 14.9474 -1.93436 3.4166
rclavicle 5.96354e-016 6.91771e-014
rhumerus -32.1451 -8.17711 -77.0977
rradius 32.6372
rwrist -12.3245
rhand -21.5756 10.5505
rfingers 7.12502
rthumb 4.81856 -19.3747
lclavicle 5.96354e-016 6.91771e-014
lhumerus -32.7408 2.34436 85.8658
lradius 39.7921
lwrist 3.4191
lhand -19.8195 20.9118
lfingers 7.12502
lthumb 6.51411 50.7916
rfemur 2.77087 -0.00661332 32.7972
rtibia 21.7478
rfoot -14.6813 28.7103
rtoes 29.7935
lfemur -66.0122 9.70925 -11.4467
ltibia 92.9894
lfoot -8.48283 -26.7771
ltoes 3.27497
